<svg xmlns="http://www.w3.org/2000/svg" viewBox="0 0 100 100">
  <defs>
    <mask id="hole">
      <rect width="100" height="100" fill="white"/>
      <circle cx="50" cy="50" r="5" fill="black"/>
    </mask>
  </defs>
  <g mask="url(#hole)">
    <circle cx="50" cy="50" r="48" fill="#D3CCBA"/>
    <path d="M50 50 L66.4 4.9 A48 48 0 0 1 91.6 26 Z" fill="#CF5B27" fill-opacity=".3"/>
    <path d="M50 50 L29.7 93.5 A48 48 0 0 1 8.4 74 Z" fill="#5B8A7A" fill-opacity=".25"/>
    <path d="M50 50 L3.6 37.6 A48 48 0 0 1 16.1 16.1 Z" fill="#7A6A93" fill-opacity=".2"/>
    <path d="M50 50 L41.7 2.7 A48 48 0 0 1 58.3 2.7 Z" fill="#F7F1E3" fill-opacity=".6"/>
    <circle cx="50" cy="50" r="46.5" fill="none" stroke="#2B211A" stroke-opacity=".45" stroke-width="3"/>
    <circle cx="50" cy="50" r="17" fill="#F7F1E3"/>
    <circle cx="50" cy="50" r="17" fill="none" stroke="#2B211A" stroke-opacity=".15" stroke-width="1.5"/>
    <circle cx="50" cy="50" r="7" fill="none" stroke="#2B211A" stroke-opacity=".3" stroke-width="2"/>
  </g>
</svg>
